<?xml version="1.0" encoding="utf-8"?>
<!-- Generator: Adobe Illustrator 18.0.0, SVG Export Plug-In . SVG Version: 6.00 Build 0)  -->
<!DOCTYPE svg PUBLIC "-//W3C//DTD SVG 1.1//EN" "http://www.w3.org/Graphics/SVG/1.1/DTD/svg11.dtd">
<svg version="1.1" id="Camada_1" xmlns="http://www.w3.org/2000/svg" xmlns:xlink="http://www.w3.org/1999/xlink" x="0px" y="0px"
	 viewBox="0 0 74.2 20" enable-background="new 0 0 74.2 20" xml:space="preserve">
<path fill="#00B0B8" d="M72,0H56.5c-1.2,0-2.2,1-2.2,2.2v15.6c0,1.2,1,2.2,2.2,2.2H72c1.2,0,2.2-1,2.2-2.2V2.2C74.2,1,73.3,0,72,0z
	 M69.8,11.1h-4.4v4.4h-2.2v-4.4h-4.4V8.9h4.4V4.4h2.2v4.4h4.4V11.1z"/>
<g>
	<path fill="#003134" d="M3,14.6L0.8,6.1h1.3l1.6,6.6l1.7-6.6h1.2l-2.3,8.4H3z"/>
	<path fill="#003134" d="M11.7,11.7h1.2c0,1-0.2,1.8-0.7,2.3c-0.4,0.5-1.1,0.8-1.9,0.8c-0.9,0-1.6-0.4-2-1.1
		c-0.4-0.7-0.6-1.8-0.6-3.3c0-1.6,0.2-2.7,0.6-3.5c0.4-0.7,1.1-1.1,2-1.1c0.9,0,1.5,0.3,2,0.9s0.6,1.6,0.6,2.8c0,0.2,0,0.4,0,0.5
		c0,0.1,0,0.2,0,0.3l-4.1,0v0.4c0,1.1,0.1,1.8,0.4,2.3s0.6,0.7,1.2,0.7c0.4,0,0.7-0.2,1-0.5C11.5,12.9,11.7,12.4,11.7,11.7
		L11.7,11.7z M8.8,9.4h2.9V9.2c0-0.8-0.1-1.4-0.3-1.8c-0.2-0.4-0.6-0.6-1-0.6c-0.5,0-0.9,0.2-1.1,0.6C8.9,7.9,8.8,8.6,8.8,9.4z"/>
	<path fill="#003134" d="M14.4,14.6V6.1h1.1v1.4c0.2-0.5,0.4-0.9,0.8-1.2c0.3-0.3,0.7-0.4,1.2-0.4c0.1,0,0.2,0,0.3,0
		c0.1,0,0.1,0,0.2,0v1.3c-0.1,0-0.1-0.1-0.2-0.1c-0.1,0-0.2,0-0.3,0c-0.6,0-1.1,0.2-1.4,0.6s-0.5,1-0.5,1.7v5.2H14.4z"/>
	<path fill="#003134" d="M22.5,14.6V6.1h1.1v1c0.2-0.4,0.5-0.7,0.9-0.9c0.4-0.2,0.8-0.3,1.3-0.3c0.5,0,0.9,0.1,1.2,0.3
		s0.5,0.5,0.6,0.9c0.2-0.4,0.6-0.7,0.9-0.9s0.8-0.3,1.3-0.3c0.7,0,1.2,0.2,1.6,0.5c0.4,0.4,0.5,0.9,0.5,1.5v6.6h-1.2V8.7
		c0-0.7-0.1-1.1-0.3-1.4C30.3,7.1,30,7,29.5,7c-0.5,0-0.9,0.2-1.2,0.5s-0.5,0.7-0.5,1.2v5.9h-1.2V8.7c0-0.6-0.1-1.1-0.3-1.3
		S25.8,7,25.4,7c-0.5,0-0.9,0.2-1.3,0.5s-0.5,0.7-0.5,1.2v5.9H22.5z"/>
	<path fill="#003134" d="M39.2,14.6c-0.2,0-0.3,0-0.4,0.1c-0.1,0-0.2,0-0.3,0c-0.3,0-0.6-0.1-0.8-0.3s-0.3-0.5-0.3-0.9
		c-0.2,0.4-0.4,0.8-0.8,1s-0.7,0.3-1.2,0.3c-0.6,0-1.1-0.2-1.4-0.6s-0.5-1-0.5-1.7c0-0.7,0.2-1.3,0.5-1.7c0.3-0.4,1-0.7,2-1.1l0,0
		c0.9-0.3,1.3-0.6,1.3-1V7.9c0-0.3-0.1-0.6-0.3-0.8C36.8,7,36.5,6.9,36,6.9c-0.4,0-0.7,0.1-0.9,0.3s-0.3,0.6-0.3,1v0.1h-1.1
		c0-0.9,0.2-1.5,0.6-1.9s1-0.6,1.9-0.6c0.8,0,1.4,0.2,1.8,0.5c0.4,0.4,0.6,0.9,0.6,1.7v4.9c0,0.2,0,0.4,0.1,0.5
		c0.1,0.1,0.2,0.1,0.4,0.1c0,0,0.1,0,0.2,0c0,0,0,0,0,0L39.2,14.6z M37.3,10c-0.2,0.2-0.6,0.4-1.2,0.7c-0.1,0-0.1,0-0.1,0
		c-0.5,0.2-0.9,0.4-1.1,0.6s-0.2,0.6-0.2,1.1c0,0.4,0.1,0.7,0.3,1s0.4,0.3,0.8,0.3c0.5,0,0.9-0.2,1.2-0.6c0.3-0.4,0.4-0.9,0.4-1.5
		V10z"/>
	<path fill="#003134" d="M40.4,4.8V3.3h1.2v1.5H40.4z M40.4,14.6V6.1h1.2v8.4H40.4z"/>
	<path fill="#003134" d="M43.2,12h1.2c0,0,0,0,0,0c0,0.1,0,0.2,0,0.2c0,0.5,0.1,0.8,0.4,1s0.6,0.4,1.1,0.4c0.5,0,0.8-0.1,1.1-0.4
		s0.4-0.6,0.4-1c0-0.7-0.5-1.2-1.5-1.5c0,0,0,0,0,0c-1-0.4-1.7-0.7-2-1.1s-0.5-0.9-0.5-1.5c0-0.7,0.2-1.3,0.6-1.7
		c0.4-0.4,1-0.6,1.8-0.6c0.8,0,1.4,0.2,1.9,0.6s0.6,1,0.6,1.8v0.1h-1.1c0-0.5-0.1-0.9-0.3-1.1s-0.5-0.3-1-0.3c-0.5,0-0.8,0.1-1,0.3
		c-0.2,0.2-0.3,0.5-0.3,1c0,0.2,0,0.4,0.1,0.5c0.1,0.2,0.1,0.3,0.3,0.4c0.2,0.2,0.6,0.4,1.3,0.6c0.3,0.1,0.6,0.2,0.8,0.3
		c0.6,0.2,1,0.5,1.2,0.9c0.2,0.3,0.4,0.8,0.4,1.4c0,0.8-0.2,1.5-0.7,2s-1.2,0.7-2.1,0.7c-0.8,0-1.4-0.2-1.9-0.7
		c-0.4-0.4-0.6-1.1-0.6-1.9V12z"/>
</g>
</svg>
