<?xml version="1.0" encoding="utf-8"?>
<!-- Generator: Adobe Illustrator 18.0.0, SVG Export Plug-In . SVG Version: 6.00 Build 0)  -->
<!DOCTYPE svg PUBLIC "-//W3C//DTD SVG 1.1//EN" "http://www.w3.org/Graphics/SVG/1.1/DTD/svg11.dtd">
<svg version="1.1" id="Camada_1" xmlns="http://www.w3.org/2000/svg" xmlns:xlink="http://www.w3.org/1999/xlink" x="0px" y="0px"
	 viewBox="0 0 31 34" enable-background="new 0 0 31 34" xml:space="preserve">
<path fill="#FFFFFF" d="M24.4,32.4H1.6V9.7H9c0.4,0,0.8-0.4,0.8-0.8V1.6h14.6v3.5c0,0,0.1,0,0.1,0c0.2,0,0.6,0,1.2,0.1
	c0.1,0,0.2,0.1,0.4,0.1V0.8C26,0.4,25.7,0,25.2,0H9C8.7,0,8.5,0.1,8.4,0.2L0.2,8.3C0.1,8.5,0,8.7,0,8.9v24.3C0,33.6,0.4,34,0.8,34
	h24.4c0.4,0,0.8-0.4,0.8-0.8V20.6c-0.4,0.4-1,0.7-1.6,0.7L24.4,32.4L24.4,32.4z"/>
<path fill="#FFFFFF" d="M30.5,5.5C30,5,29.6,5,29.5,5c-0.1,0-0.1,0-0.2,0.1l-1.8,1.8c0.3,0.2,0.6,0.4,0.9,0.7
	c0.3,0.3,0.5,0.6,0.7,0.9l1.8-1.8c0,0,0.1-0.1,0.1-0.2C31,6.4,31,6,30.5,5.5z"/>
<path fill="#FFFFFF" d="M28.9,13.2L28,14.1l-0.6-0.6l1.6-1.6c0.1-0.1,0.2-0.3,0.2-0.5c0-0.1,0-1.4-1.6-3.1c-1.6-1.6-2.9-1.6-3.1-1.6
	c-0.2,0-0.4,0.1-0.5,0.2L10.3,20.7c-0.1,0.1-0.2,0.2-0.2,0.3l-1.9,5.8c-0.1,0.3,0,0.6,0.2,0.8c0.2,0.2,0.5,0.3,0.8,0.2l5.8-1.9
	c0.1,0,0.2-0.1,0.3-0.2L26.9,14l0.6,0.6l-3.7,3.7c-0.3,0.3-0.3,0.8,0,1.1c0.2,0.2,0.4,0.2,0.6,0.2c0.2,0,0.4-0.1,0.6-0.2l5.2-5.2
	c0.3-0.3,0.3-0.8,0-1.1C29.8,12.9,29.3,12.9,28.9,13.2z"/>
</svg>
