<?xml version="1.0" encoding="utf-8"?>
<!-- Generator: Adobe Illustrator 18.0.0, SVG Export Plug-In . SVG Version: 6.00 Build 0)  -->
<!DOCTYPE svg PUBLIC "-//W3C//DTD SVG 1.1//EN" "http://www.w3.org/Graphics/SVG/1.1/DTD/svg11.dtd">
<svg version="1.1" id="Camada_1" xmlns="http://www.w3.org/2000/svg" xmlns:xlink="http://www.w3.org/1999/xlink" x="0px" y="0px"
	 viewBox="0 0 19 26" enable-background="new 0 0 19 26" xml:space="preserve">
<path fill="#FFFFFF" d="M1.8,1.6C0.7,2.4-2.3,6.7,3.3,16.5c6,10.3,11.7,9.9,12.8,9.2l-4-6.8c-1,0.6-1.8-0.4-3.2-2.4
	c0,0-2.9-4.8-2.9-4.9c-0.6-1.3-1.1-2.6-0.1-3.2L1.8,1.6z"/>
<path fill="#FFFFFF" d="M18.6,24.3c0.4-0.3,0.5-0.8,0.3-1.2l0,0c0,0-3.1-5.3-3.1-5.3c-0.2-0.4-0.8-0.5-1.2-0.3l-1.9,1.1l4,6.8
	C16.7,25.4,18.6,24.3,18.6,24.3L18.6,24.3z"/>
<path fill="#FFFFFF" d="M8.4,7.1c0.4-0.3,0.5-0.8,0.3-1.2l0,0c0,0-3.2-5.4-3.2-5.4C5.2,0,4.6-0.1,4.2,0.1L2.3,1.3l4.1,6.9
	C6.4,8.2,8.4,7.1,8.4,7.1L8.4,7.1z"/>
</svg>
