<?xml version="1.0" encoding="utf-8"?>
<!-- Generator: Adobe Illustrator 18.0.0, SVG Export Plug-In . SVG Version: 6.00 Build 0)  -->
<!DOCTYPE svg PUBLIC "-//W3C//DTD SVG 1.1//EN" "http://www.w3.org/Graphics/SVG/1.1/DTD/svg11.dtd">
<svg version="1.1" id="Layer_1" xmlns="http://www.w3.org/2000/svg" xmlns:xlink="http://www.w3.org/1999/xlink" x="0px" y="0px"
	 viewBox="0 0 401.8 73.8" enable-background="new 0 0 401.8 73.8" xml:space="preserve">
<g>
	<path fill="#00B2BB" d="M54.1,33c2.1-4.7,7.6-6.8,12.2-4.7c4.7,2.1,6.8,7.6,4.7,12.2c-2.1,4.7-7.6,6.8-12.2,4.7
		C54.1,43.1,52,37.6,54.1,33 M67.9,39.1c1.3-2.9,0-6.4-2.9-7.7c-2.9-1.3-6.4,0-7.7,2.9c-1.3,2.9,0,6.4,2.9,7.7
		C63.2,43.3,66.6,42,67.9,39.1"/>
	<path fill="#047E8D" d="M47.7,34.7c0.5,6.9,2.9,17.6,11.9,26.3c2.7,2.7,1.6,4.1-1.6,2c-6.1-3.9-14.2-12.2-12.4-27.8
		C46.1,31.5,47.4,30.9,47.7,34.7"/>
	<path fill="#00B2BB" d="M3.5,33.5c2.1-4.7,7.6-6.8,12.2-4.7c4.7,2.1,6.8,7.6,4.7,12.3c-2.1,4.7-7.6,6.8-12.3,4.7
		C3.6,43.7,1.5,38.2,3.5,33.5 M17.3,39.7c1.3-2.9,0-6.4-2.9-7.7C11.5,30.7,8,32,6.7,35c-1.3,2.9,0,6.4,2.9,7.7
		C12.6,43.9,16,42.6,17.3,39.7"/>
	<path fill="#047E8D" d="M26.9,39.4C26.4,32.5,24,21.8,15,13c-2.7-2.7-1.6-4.1,1.6-2c6.1,3.9,14.2,12.2,12.3,27.8
		C28.5,42.6,27.2,43.2,26.9,39.4"/>
	<path fill="#00B2BB" d="M28.5,8c2.1-4.7,7.6-6.8,12.3-4.7c4.7,2.1,6.8,7.6,4.7,12.2c-2.1,4.7-7.6,6.8-12.2,4.7
		C28.5,18.1,26.5,12.6,28.5,8 M42.3,14.1c1.3-2.9,0-6.4-2.9-7.7c-2.9-1.3-6.4,0-7.7,2.9c-1.3,2.9,0,6.4,2.9,7.7
		C37.6,18.3,41,17,42.3,14.1"/>
	<path fill="#047E8D" d="M35,26.6c6.9-0.5,17.6-3,26.3-11.9c2.7-2.7,4.1-1.6,2,1.6c-4,6.1-12.3,14.3-27.8,12.4
		C31.7,28.3,31.2,26.9,35,26.6"/>
	<path fill="#00B2BB" d="M29.1,58.5c2.1-4.7,7.6-6.8,12.2-4.7c4.7,2.1,6.8,7.6,4.7,12.3c-2.1,4.7-7.6,6.8-12.2,4.7
		C29.1,68.7,27,63.2,29.1,58.5 M42.9,64.7c1.3-2.9,0-6.4-2.9-7.7c-2.9-1.3-6.4,0-7.7,2.9c-1.3,2.9,0,6.4,2.9,7.7
		C38.1,68.9,41.6,67.6,42.9,64.7"/>
	<path fill="#047E8D" d="M39.6,47.4C32.8,48,22,50.4,13.3,59.3c-2.7,2.7-4.1,1.6-2-1.6c3.9-6.1,12.2-14.2,27.8-12.3
		C42.9,45.8,43.5,47.1,39.6,47.4"/>
	<path fill="#047E8D" d="M129.9,37.5c-0.8,0-1.4,0.3-2,0.8c-0.5,0.5-0.8,1.2-0.8,2c0,0.7,0.2,1.3,0.7,1.9c0.5,0.5,1.1,0.8,1.8,0.9
		h0.6c0.7-0.1,1.3-0.4,1.8-0.9c0.5-0.5,0.7-1.1,0.7-1.9c0-0.8-0.3-1.5-0.8-2C131.3,37.8,130.6,37.5,129.9,37.5 M130.7,41.2
		c-0.2,0.2-0.5,0.3-0.8,0.3c-0.4,0-0.6-0.1-0.9-0.3c-0.2-0.2-0.3-0.5-0.3-0.9c0-0.3,0.1-0.6,0.3-0.9c0.3-0.2,0.5-0.3,0.9-0.3
		c0.3,0,0.6,0.1,0.8,0.4c0.2,0.2,0.3,0.5,0.3,0.9C131,40.7,130.9,41,130.7,41.2"/>
	<polygon fill="#047E8D" points="154.6,5.4 152.4,5.4 152.4,42.9 171.7,42.9 171.7,40.7 154.6,40.7 	"/>
	<rect x="194.2" y="15.4" fill="#047E8D" width="2.2" height="27.4"/>
	<path fill="#047E8D" d="M195.3,6.8c-0.8,0-1.4,0.3-2,0.8c-0.5,0.5-0.8,1.2-0.8,2c0,0.7,0.2,1.3,0.7,1.8c0.5,0.5,1.1,0.8,1.8,0.9
		h0.6c0.7-0.1,1.3-0.4,1.8-0.9c0.5-0.5,0.7-1.1,0.7-1.8c0-0.8-0.3-1.5-0.8-2C196.7,7.1,196.1,6.8,195.3,6.8 M196.1,10.5
		c-0.2,0.2-0.5,0.3-0.9,0.3c-0.3,0-0.6-0.1-0.8-0.3c-0.2-0.2-0.4-0.5-0.4-0.8c0-0.4,0.1-0.6,0.3-0.9c0.2-0.2,0.5-0.3,0.9-0.3
		c0.4,0,0.6,0.1,0.9,0.4c0.2,0.2,0.3,0.5,0.3,0.9C196.4,10,196.3,10.3,196.1,10.5"/>
	<polygon fill="#047E8D" points="200.8,17.7 215.9,17.7 200.8,41.1 200.8,42.9 218.8,42.9 218.8,40.6 203.6,40.6 218.8,17.2 
		218.8,15.4 200.8,15.4 	"/>
	<path fill="#047E8D" d="M297.9,28c-0.4-0.2-1.4-0.4-2.7-0.8c-1.3-0.4-2.3-0.7-3-1c-1.3-0.5-2.2-0.9-2.6-1.3
		c-0.8-0.7-1.2-1.6-1.2-2.7c0-1.4,0.7-2.6,1.9-3.5c1.1-0.9,2.6-1.3,4.5-1.3c1.8,0,3.3,0.4,4.4,1.2c0.6,0.4,1.1,1,1.4,1.5
		c0.4,0.7,0.6,1.5,0.7,2.5h2.1c-0.1-1.3-0.4-2.5-0.9-3.5c-0.5-0.9-1.2-1.7-2-2.3c-1.4-1-3.3-1.6-5.7-1.6c-2.4,0-4.3,0.6-5.7,1.7
		c-1.8,1.4-2.7,3.1-2.7,5.1c0,1.8,0.6,3.3,2,4.5c0.6,0.5,1.7,1.1,3.2,1.7c0.8,0.3,1.9,0.6,3.3,1.1c1.4,0.4,2.2,0.7,2.6,0.8
		c1.8,0.6,3,1.4,3.8,2.4c0.7,0.9,1,2.1,0.8,3.6c-0.2,1.7-0.8,3.1-1.9,4c-1.1,0.9-2.7,1.4-4.8,1.3c-2-0.1-3.6-0.6-4.8-1.5
		c-0.5-0.4-1-1-1.3-1.6c-0.4-0.9-0.7-1.8-0.8-2.9l-2.2,0.1c0.2,1.5,0.5,2.7,1,3.7c0.5,0.9,1.1,1.8,1.9,2.4c1.6,1.3,3.6,2,6.2,2
		c2.7,0,4.8-0.6,6.3-1.8c1.5-1.3,2.4-3.1,2.7-5.5c0.2-2.2-0.2-3.9-1.2-5.2C301.8,29.9,300.1,28.8,297.9,28"/>
	<polygon fill="#047E8D" points="368.7,15.4 361.5,38.5 354.3,15.4 352,15.4 360.6,42.9 362.5,42.9 371,15.4 	"/>
	<path fill="#047E8D" d="M347.7,22.3c-2.5-4.1-6.9-6.9-12-6.9c-7.4,0-13.4,5.7-13.9,13l0,5.8c0,1-0.2,2.1-0.5,2.9
		c-0.3,0.9-0.8,1.7-1.5,2.4c-1.3,1.3-2.8,1.9-4.7,1.9c-1.8,0-3.4-0.6-4.7-1.9c-1.3-1.3-1.9-2.9-1.9-4.7V17.6h9.7v-2.2h-9.7V5.4h-2.2
		v29.4c0,2.4,0.9,4.5,2.6,6.2c1.7,1.7,3.8,2.6,6.2,2.6c2.4,0,4.5-0.8,6.2-2.5c0.9-0.9,1.6-1.9,2-3.1c0.2-0.5,0.3-1,0.4-1.5
		c2.4,4.3,6.8,7.1,12.1,7.1c5.1,0,9.5-2.9,12-7v6.2h2.2V15.4h-2.2V22.3z M335.7,41.9c-6.6,0-11.9-5.8-11.9-12.4
		c0-6.6,5.3-11.9,11.9-11.9c6.6,0,11.9,5.3,11.9,11.9C347.5,36,342.2,41.9,335.7,41.9"/>
	<path fill="#047E8D" d="M385.1,15.4c-7.7,0-14,6.3-14,14c0,7.8,6.3,14.2,14,14.2c7.7,0,14-6.4,14-14.2
		C399.1,21.7,392.8,15.4,385.1,15.4 M385.1,41.5c-6.6,0-11.9-5.5-11.9-12c0-6.6,5.3-11.9,11.9-11.9c6.6,0,11.9,5.3,11.9,11.9
		C396.9,36,391.6,41.5,385.1,41.5"/>
	<path fill="#047E8D" d="M91.6,5.4v38.1c10.5,0,19.1-8.5,19.1-19.1C110.7,13.9,102.2,5.4,91.6,5.4 M93.8,41.2V7.7
		c8.3,1.1,14.8,8.2,14.8,16.8C108.5,33,102.1,40.2,93.8,41.2"/>
	<path fill="#047E8D" d="M130.9,24.5c0-5-4.1-9-9-9c-2.7,0-5.2,1.3-6.8,3.2v-3.2h-2.2v27.4h2.2V24.2c0.2-3.6,3.1-6.6,6.8-6.6
		c3.8,0,6.9,3.1,6.9,6.8H130.9z"/>
	<path fill="#047E8D" d="M187.6,34.6L187.6,34.6c0,3.8-3.1,6.9-6.9,6.9c-3.8,0-6.9-3.1-6.9-6.9h0V15.4h-2.1v19.2c0,5,4,9,9,9
		c5,0,9-4,9-9h0V15.4h-2.2V34.6z"/>
	<path fill="#047E8D" d="M281.6,34.6L281.6,34.6c0,3.8-3.1,6.9-6.9,6.9c-3.8,0-6.9-3.1-6.9-6.9h0V15.4h-2.2v19.2c0,5,4.1,9,9,9
		c5,0,9-4,9-9h0V15.4h-2.1V34.6z"/>
	<path fill="#047E8D" d="M238.5,24.1c0,10.1,8.2,18.4,18.5,18.7v0h4.4v-2.1l0-25.3h-5.9v2.1h3.8v23.2h-1.8l-1.9-0.1
		c-8.3-1-14.8-8-14.8-16.5c0-8.1,5.9-14.8,13.7-16.3c0,0,0,0,0.1,0c0.2,0,0.3,0,0.5-0.1c0.2,0,0.3-0.1,0.5-0.1v0
		c0.9-0.1,5.4-0.1,5.9-0.1V5.4h-3.7C247.1,5.4,238.5,13.8,238.5,24.1"/>
	<path fill="#00B2BB" d="M98.5,60.5c0-0.6-0.1-1.1-0.3-1.5c-0.3-0.5-0.9-0.9-1.9-0.9c-1.1,0-2.2,0.8-2.8,1.6v-1.4h-1.8v0.6h1.2v6
		h-1.2v0.6h3.1v-0.6h-1.2v-4.5c0.7-0.9,1.7-1.6,2.7-1.6c0.7,0,1.2,0.3,1.4,0.8c0.2,0.3,0.2,0.7,0.2,1.2v4.1h-1.2v0.6h3.1v-0.6h-1.2
		V60.5z"/>
	<path fill="#00B2BB" d="M104.2,58c-2,0-3.4,1.6-3.4,3.7c0,2.2,1.5,3.7,3.6,3.7c0.9,0,1.8-0.3,2.5-0.7L107,64
		c-0.8,0.5-1.5,0.8-2.5,0.8c-1.8,0-3-1.1-3-3h5.8c0-0.1,0-0.2,0-0.4C107.4,59.6,106.2,58,104.2,58 M101.5,61.2
		c0.2-1.6,1.3-2.6,2.6-2.6c1.6,0,2.5,1.2,2.6,2.6H101.5z"/>
	<path fill="#00B2BB" d="M115.3,58.2h-1.9v0.6h1.2v4.5c-0.7,0.9-1.6,1.6-2.7,1.6c-0.7,0-1.2-0.3-1.4-0.7c-0.1-0.3-0.2-0.7-0.2-1.2
		v-4.7h-1.9v0.6h1.3V63c0,0.6,0.1,1.1,0.3,1.5c0.3,0.6,0.9,1,1.9,1c1.1,0,2.1-0.8,2.8-1.6v1.5h1.9v-0.6h-1.3V58.2z"/>
	<path fill="#00B2BB" d="M121.8,58c-0.7,0-1.6,0.8-2.1,1.7v-1.6h-1.8v0.6h1.2v6h-1.2v0.6h3.3v-0.6h-1.4v-4.3
		c0.4-0.8,1.1-1.6,1.8-1.7c0,0.3,0.3,0.6,0.6,0.6c0.3,0,0.6-0.3,0.6-0.6C122.6,58.4,122.3,58,121.8,58"/>
	<path fill="#00B2BB" d="M127.1,58c-2.1,0-3.6,1.6-3.6,3.7c0,2.1,1.5,3.7,3.6,3.7c2.1,0,3.6-1.6,3.6-3.7
		C130.7,59.6,129.2,58,127.1,58 M127.1,64.8c-1.7,0-2.9-1.3-2.9-3.1c0-1.8,1.2-3.1,2.9-3.1c1.7,0,2.9,1.3,2.9,3.1
		C130,63.5,128.8,64.8,127.1,64.8"/>
	<path fill="#00B2BB" d="M137.4,60.2c0,0.4,0.3,0.5,0.5,0.5c0.4,0,0.6-0.3,0.6-0.7c0-1-1.2-2-2.7-2c-1.9,0-3.5,1.6-3.5,3.7
		c0,2.1,1.6,3.6,3.7,3.6c0.7,0,1.6-0.2,2.3-0.7l0.1-0.6c-0.8,0.5-1.5,0.8-2.3,0.8c-1.8,0-3.1-1.2-3.1-3c0-2,1.4-3.2,2.9-3.2
		c0.9,0,1.8,0.4,2,1.1C137.5,59.8,137.4,60,137.4,60.2"/>
	<polygon fill="#00B2BB" points="141.9,58.2 140,58.2 140,58.7 141.3,58.7 141.3,64.7 140,64.7 140,65.3 143.3,65.3 143.3,64.7 
		141.9,64.7 	"/>
	<path fill="#00B2BB" d="M141.5,55.8c0.3,0,0.6-0.3,0.6-0.6c0-0.4-0.3-0.6-0.6-0.6c-0.3,0-0.6,0.3-0.6,0.6
		C140.9,55.5,141.1,55.8,141.5,55.8"/>
	<path fill="#00B2BB" d="M148.5,58c-0.7,0-1.6,0.8-2.1,1.7v-1.6h-1.8v0.6h1.2v6h-1.2v0.6h3.3v-0.6h-1.4v-4.3
		c0.5-0.8,1.1-1.6,1.8-1.7c0,0.3,0.3,0.6,0.6,0.6c0.3,0,0.6-0.3,0.6-0.6C149.3,58.4,149,58,148.5,58"/>
	<path fill="#00B2BB" d="M156.9,58.2h-1.9v0.6h1.2v4.5c-0.7,0.9-1.6,1.6-2.7,1.6c-0.7,0-1.2-0.3-1.4-0.7c-0.1-0.3-0.2-0.7-0.2-1.2
		v-4.7h-1.9v0.6h1.2V63c0,0.6,0.1,1.1,0.3,1.5c0.3,0.6,0.9,1,1.9,1c1.1,0,2.1-0.8,2.8-1.6v1.5h1.9v-0.6h-1.3V58.2z"/>
	<path fill="#00B2BB" d="M163.4,58c-0.7,0-1.6,0.8-2.1,1.7v-1.6h-1.9v0.6h1.3v6h-1.3v0.6h3.3v-0.6h-1.4v-4.3
		c0.4-0.8,1.1-1.6,1.8-1.7c0,0.3,0.3,0.6,0.6,0.6c0.3,0,0.5-0.3,0.5-0.6C164.2,58.4,164,58,163.4,58"/>
	<path fill="#00B2BB" d="M171.3,59.1c-0.6-0.6-1.5-1.1-2.5-1.1c-2.1,0-3.6,1.7-3.6,3.7c0,2,1.5,3.6,3.4,3.6c1.2,0,2-0.6,2.7-1.3v1.7
		c0,0.7-0.2,1.2-0.5,1.5c-0.5,0.6-1.2,0.8-2.1,0.8c-1,0-1.6-0.3-1.8-0.5c0.2-0.1,0.2-0.3,0.2-0.5c0-0.3-0.2-0.5-0.5-0.5
		c-0.3,0-0.6,0.3-0.6,0.6c0,0.2,0.1,0.5,0.3,0.7c0.4,0.4,1.2,0.8,2.3,0.8c1.1,0,2.1-0.3,2.6-1c0.4-0.5,0.6-1.1,0.6-2v-7h1.2v-0.6
		h-1.9V59.1z M171.3,63.4c-0.7,0.8-1.5,1.3-2.6,1.3c-1.6,0-2.8-1.3-2.8-3.1c0-1.7,1.2-3.1,2.9-3.1c1.1,0,1.9,0.5,2.5,1.1V63.4z"/>
	<path fill="#00B2BB" d="M175.9,55.8c0.4,0,0.6-0.3,0.6-0.6c0-0.4-0.3-0.6-0.6-0.6c-0.3,0-0.6,0.3-0.6,0.6
		C175.3,55.5,175.6,55.8,175.9,55.8"/>
	<polygon fill="#00B2BB" points="176.4,58.2 174.4,58.2 174.4,58.7 175.7,58.7 175.7,64.7 174.4,64.7 174.4,65.3 177.7,65.3 
		177.7,64.7 176.4,64.7 	"/>
	<path fill="#00B2BB" d="M184.4,60.2c0-0.6-0.2-1.1-0.5-1.4c-0.4-0.5-1.1-0.8-2.1-0.8c-1.6,0-2.5,0.8-2.5,1.5c0,0.3,0.2,0.6,0.6,0.6
		c0.3,0,0.5-0.3,0.5-0.5c0-0.2-0.1-0.4-0.2-0.5c0.3-0.3,0.8-0.5,1.6-0.5c0.8,0,1.4,0.3,1.7,0.6c0.2,0.3,0.4,0.7,0.4,1.1v1.3
		c-0.5-0.2-1.5-0.4-2.3-0.4c-1.5,0-2.6,0.9-2.6,2.1c0,1.1,0.9,2,2.4,2c1,0,2-0.6,2.6-1.2v1.1h1.8v-0.6h-1.2V60.2z M183.7,63.6
		c-0.6,0.7-1.5,1.3-2.5,1.3c-1.2,0-1.8-0.7-1.8-1.5c0-0.8,0.7-1.6,2.1-1.6c0.8,0,1.6,0.1,2.2,0.4V63.6z"/>
	<path fill="#00B2BB" d="M193.9,52.6c-0.6,0-1,0.2-1.4,0.6c-0.5,0.4-0.7,1.2-0.7,2.2v2.8h-1.3v0.6h1.3v6h-1.2v0.6h3.3v-0.6h-1.4v-6
		h1.9v-0.6h-1.9v-2.9c0-0.8,0.2-1.3,0.5-1.6c0.2-0.2,0.5-0.4,0.8-0.4c0.1,0.4,0.3,0.6,0.6,0.6c0.3,0,0.5-0.2,0.5-0.5
		C194.9,52.9,194.5,52.6,193.9,52.6"/>
	<path fill="#00B2BB" d="M202.2,58.2h-1.9v0.6h1.2v4.5c-0.8,0.9-1.7,1.6-2.7,1.6c-0.7,0-1.2-0.3-1.4-0.7c-0.2-0.3-0.2-0.7-0.2-1.2
		v-4.7h-1.9v0.6h1.2V63c0,0.6,0.1,1.1,0.3,1.5c0.3,0.6,0.9,1,1.9,1c1.1,0,2.2-0.8,2.8-1.6v1.5h1.9v-0.6h-1.2V58.2z"/>
	<path fill="#00B2BB" d="M211.5,60.5c0-0.6-0.1-1.1-0.3-1.5c-0.3-0.5-0.9-0.9-1.9-0.9c-1.1,0-2.2,0.8-2.8,1.6v-1.4h-1.8v0.6h1.2v6
		h-1.2v0.6h3.1v-0.6h-1.2v-4.5c0.7-0.9,1.7-1.6,2.7-1.6c0.7,0,1.2,0.3,1.4,0.8c0.2,0.3,0.2,0.7,0.2,1.2v4.1h-1.2v0.6h3.1v-0.6h-1.2
		V60.5z"/>
	<path fill="#00B2BB" d="M219,60.2c0,0.4,0.3,0.5,0.5,0.5c0.4,0,0.6-0.3,0.6-0.7c0-1-1.2-2-2.7-2c-1.9,0-3.5,1.6-3.5,3.7
		c0,2.1,1.6,3.6,3.7,3.6c0.8,0,1.7-0.2,2.3-0.7l0-0.6c-0.8,0.5-1.5,0.8-2.3,0.8c-1.8,0-3.1-1.2-3.1-3c0-2,1.4-3.2,2.9-3.2
		c0.9,0,1.8,0.4,2,1.1C219.1,59.8,219,60,219,60.2"/>
	<polygon fill="#00B2BB" points="223.5,58.2 221.6,58.2 221.6,58.7 222.9,58.7 222.9,64.7 221.6,64.7 221.6,65.3 224.9,65.3 
		224.9,64.7 223.5,64.7 	"/>
	<path fill="#00B2BB" d="M223.1,55.8c0.4,0,0.6-0.3,0.6-0.6c0-0.4-0.3-0.6-0.6-0.6c-0.3,0-0.6,0.3-0.6,0.6
		C222.5,55.5,222.7,55.8,223.1,55.8"/>
	<path fill="#00B2BB" d="M229.8,58c-2.1,0-3.6,1.6-3.6,3.7c0,2.1,1.5,3.7,3.6,3.7c2.1,0,3.6-1.6,3.6-3.7
		C233.4,59.6,231.9,58,229.8,58 M229.8,64.8c-1.7,0-2.9-1.3-2.9-3.1c0-1.8,1.2-3.1,2.9-3.1c1.7,0,2.9,1.3,2.9,3.1
		C232.7,63.5,231.5,64.8,229.8,64.8"/>
	<path fill="#00B2BB" d="M241.7,60.5c0-0.6-0.1-1.1-0.3-1.5c-0.3-0.5-0.9-0.9-1.9-0.9c-1.1,0-2.2,0.8-2.8,1.6v-1.4h-1.8v0.6h1.2v6
		h-1.2v0.6h3.1v-0.6h-1.2v-4.5c0.7-0.9,1.7-1.6,2.7-1.6c0.7,0,1.2,0.3,1.4,0.8c0.2,0.3,0.2,0.7,0.2,1.2v4.1h-1.2v0.6h3.1v-0.6h-1.2
		V60.5z"/>
	<path fill="#00B2BB" d="M249.6,60.2c0-0.6-0.2-1.1-0.5-1.4c-0.4-0.5-1.2-0.8-2.1-0.8c-1.6,0-2.5,0.8-2.5,1.5c0,0.3,0.2,0.6,0.6,0.6
		c0.3,0,0.5-0.3,0.5-0.5c0-0.2-0.1-0.4-0.2-0.5c0.3-0.3,0.8-0.5,1.6-0.5c0.8,0,1.4,0.3,1.7,0.6c0.2,0.3,0.4,0.7,0.4,1.1v1.3
		c-0.5-0.2-1.5-0.4-2.3-0.4c-1.5,0-2.6,0.9-2.6,2.1c0,1.1,0.9,2,2.4,2c1.1,0,2-0.6,2.6-1.2v1.1h1.8v-0.6h-1.2V60.2z M249,63.6
		c-0.6,0.7-1.5,1.3-2.5,1.3c-1.2,0-1.8-0.7-1.8-1.5c0-0.8,0.7-1.6,2.1-1.6c0.8,0,1.6,0.1,2.2,0.4V63.6z"/>
	<polygon fill="#00B2BB" points="253.6,52.8 251.7,52.8 251.7,53.4 253,53.4 253,64.7 251.7,64.7 251.7,65.3 255,65.3 255,64.7 
		253.6,64.7 	"/>
	<path fill="#00B2BB" d="M264.6,60.3c-0.7,0-1.3,0.6-1.3,1.3c0,0.8,0.6,1.3,1.3,1.3c0.7,0,1.3-0.6,1.3-1.3
		C265.8,60.9,265.3,60.3,264.6,60.3"/>
	<path fill="#00B2BB" d="M281.1,52.8H279v0.6h1.5v5.7c-0.6-0.6-1.6-1-2.6-1c-2.1,0-3.5,1.6-3.5,3.7c0,2.1,1.5,3.6,3.4,3.6
		c1.1,0,2.1-0.5,2.7-1.3v1.2h1.8v-0.6h-1.2V52.8z M280.5,63.5c-0.7,0.8-1.5,1.3-2.6,1.3c-1.6,0-2.8-1.3-2.8-3.1
		c0-1.8,1.2-3.1,2.9-3.1c1.1,0,1.9,0.5,2.6,1V63.5z"/>
	<path fill="#00B2BB" d="M287.2,58c-2.1,0-3.6,1.6-3.6,3.7c0,2.1,1.5,3.7,3.6,3.7c2.1,0,3.6-1.6,3.6-3.7
		C290.8,59.6,289.3,58,287.2,58 M287.2,64.8c-1.7,0-2.9-1.3-2.9-3.1c0-1.8,1.2-3.1,2.9-3.1c1.7,0,2.9,1.3,2.9,3.1
		C290.1,63.5,288.9,64.8,287.2,64.8"/>
	<path fill="#00B2BB" d="M296.2,58c-0.7,0-1.6,0.8-2.1,1.7v-1.6h-1.9v0.6h1.3v6h-1.3v0.6h3.3v-0.6h-1.4v-4.3
		c0.5-0.8,1.1-1.6,1.8-1.7c0,0.3,0.3,0.6,0.6,0.6c0.3,0,0.6-0.3,0.6-0.6C297.1,58.4,296.8,58,296.2,58"/>
	<path fill="#00B2BB" d="M306.4,60.3c-0.7,0-1.3,0.6-1.3,1.3c0,0.8,0.6,1.3,1.3,1.3c0.7,0,1.3-0.6,1.3-1.3
		C307.7,60.9,307.1,60.3,306.4,60.3"/>
	<path fill="#00B2BB" d="M319.6,58c-2,0-3.3,1.6-3.3,3.7c0,2.2,1.5,3.7,3.6,3.7c0.9,0,1.8-0.3,2.5-0.7l0.1-0.6
		c-0.8,0.5-1.5,0.8-2.5,0.8c-1.8,0-3-1.1-3.1-3h5.8c0-0.1,0.1-0.2,0.1-0.4C322.7,59.6,321.6,58,319.6,58 M316.9,61.2
		c0.1-1.6,1.3-2.6,2.6-2.6c1.6,0,2.5,1.2,2.6,2.6H316.9z"/>
	<path fill="#00B2BB" d="M327.2,61.3c-1.2-0.3-2.1-0.6-2.1-1.4c0-0.7,0.7-1.3,1.9-1.3c0.6,0,1.3,0.1,1.6,0.5
		c-0.1,0.1-0.2,0.3-0.2,0.4c0,0.3,0.2,0.5,0.5,0.5c0.3,0,0.5-0.2,0.5-0.6c0-0.3-0.1-0.5-0.3-0.7c-0.4-0.4-1.1-0.7-2.1-0.7
		c-1.5,0-2.5,0.9-2.5,1.9c0,1.3,1.1,1.6,2.6,2c1.1,0.3,2,0.6,2,1.5c0,0.8-0.8,1.4-2.1,1.4c-0.9,0-1.7-0.4-1.9-0.7
		c0.2-0.1,0.2-0.3,0.2-0.4c0-0.3-0.2-0.5-0.5-0.5c-0.3,0-0.5,0.3-0.5,0.6c0,0.3,0.1,0.5,0.3,0.7c0.5,0.5,1.4,0.9,2.4,0.9
		c1.5,0,2.7-0.8,2.7-2C329.7,62,328.5,61.6,327.2,61.3"/>
	<path fill="#00B2BB" d="M332.9,64.3c-0.1-0.2-0.1-0.4-0.1-0.7v-4.9h2.3v-0.6h-2.3v-2.1l-0.6,0.2v1.9h-1.3v0.6h1.3v5
		c0,0.3,0,0.6,0.2,0.9c0.2,0.5,0.7,0.8,1.3,0.8c0.6,0,1-0.2,1.3-0.4l0.1-0.6c-0.4,0.3-0.8,0.4-1.3,0.4
		C333.3,64.8,333,64.6,332.9,64.3"/>
	<path fill="#00B2BB" d="M339.7,58c-2,0-3.4,1.6-3.4,3.7c0,2.2,1.5,3.7,3.7,3.7c0.9,0,1.8-0.3,2.5-0.7l0.1-0.6
		c-0.7,0.5-1.5,0.8-2.5,0.8c-1.8,0-3-1.1-3.1-3h5.8c0-0.1,0-0.2,0-0.4C342.9,59.6,341.8,58,339.7,58 M337,61.2
		c0.2-1.6,1.3-2.6,2.7-2.6c1.6,0,2.5,1.2,2.6,2.6H337z"/>
	<path fill="#00B2BB" d="M348.3,58c-0.7,0-1.6,0.8-2.1,1.7v-1.6h-1.9v0.6h1.2v6h-1.2v0.6h3.3v-0.6h-1.4v-4.3
		c0.5-0.8,1.1-1.6,1.8-1.7c0,0.3,0.3,0.6,0.6,0.6c0.3,0,0.6-0.3,0.6-0.6C349.2,58.4,348.9,58,348.3,58"/>
	<path fill="#00B2BB" d="M353.4,58c-2,0-3.4,1.6-3.4,3.7c0,2.2,1.5,3.7,3.6,3.7c0.9,0,1.8-0.3,2.5-0.7l0.1-0.6
		c-0.8,0.5-1.5,0.8-2.5,0.8c-1.8,0-3-1.1-3.1-3h5.8c0-0.1,0-0.2,0-0.4C356.6,59.6,355.4,58,353.4,58 M350.7,61.2
		c0.2-1.6,1.3-2.6,2.6-2.6c1.7,0,2.5,1.2,2.6,2.6H350.7z"/>
	<path fill="#00B2BB" d="M361.7,58c-2.1,0-3.6,1.6-3.6,3.7c0,2.1,1.5,3.7,3.6,3.7c2.1,0,3.6-1.6,3.6-3.7
		C365.3,59.6,363.8,58,361.7,58 M361.7,64.8c-1.7,0-2.9-1.3-2.9-3.1c0-1.8,1.2-3.1,2.9-3.1c1.7,0,2.9,1.3,2.9,3.1
		C364.6,63.5,363.4,64.8,361.7,64.8"/>
	<path fill="#00B2BB" d="M368.4,64.3c-0.1-0.2-0.1-0.4-0.1-0.7v-4.9h2.3v-0.6h-2.3v-2.1l-0.6,0.2v1.9h-1.3v0.6h1.3v5
		c0,0.3,0.1,0.6,0.2,0.9c0.2,0.5,0.7,0.8,1.4,0.8c0.6,0,1-0.2,1.3-0.4l0.1-0.6c-0.4,0.3-0.9,0.4-1.3,0.4
		C368.9,64.8,368.5,64.6,368.4,64.3"/>
	<path fill="#00B2BB" d="M377.5,60.2c0-0.6-0.2-1.1-0.5-1.4c-0.4-0.5-1.2-0.8-2.1-0.8c-1.6,0-2.5,0.8-2.5,1.5c0,0.3,0.2,0.6,0.5,0.6
		c0.3,0,0.5-0.3,0.5-0.5c0-0.2-0.1-0.4-0.2-0.5c0.3-0.3,0.7-0.5,1.6-0.5c0.8,0,1.4,0.3,1.7,0.6c0.2,0.3,0.4,0.7,0.4,1.1v1.3
		c-0.5-0.2-1.4-0.4-2.3-0.4c-1.5,0-2.6,0.9-2.6,2.1c0,1.1,0.9,2,2.4,2c1,0,2-0.6,2.6-1.2v1.1h1.8v-0.6h-1.2V60.2z M376.8,63.6
		c-0.6,0.7-1.4,1.3-2.4,1.3c-1.3,0-1.8-0.7-1.8-1.5c0-0.8,0.7-1.6,2.1-1.6c0.8,0,1.6,0.1,2.2,0.4V63.6z"/>
	<polygon fill="#00B2BB" points="383.4,61.6 385.6,58.7 386.7,58.7 386.7,58.2 383.9,58.2 383.9,58.7 385,58.7 383.1,61.3 
		381.2,58.7 382.3,58.7 382.3,58.2 379.5,58.2 379.5,58.7 380.5,58.7 382.8,61.7 380.4,64.7 379.4,64.7 379.4,65.3 382.2,65.3 
		382.2,64.8 381,64.8 383.1,62 385.1,64.8 383.9,64.8 383.9,65.3 386.8,65.3 386.8,64.7 385.8,64.7 	"/>
	<path fill="#00B2BB" d="M389.4,55.8c0.3,0,0.6-0.3,0.6-0.6c0-0.4-0.3-0.6-0.6-0.6c-0.4,0-0.6,0.3-0.6,0.6
		C388.8,55.5,389,55.8,389.4,55.8"/>
	<polygon fill="#00B2BB" points="389.8,58.2 387.9,58.2 387.9,58.7 389.2,58.7 389.2,64.7 387.9,64.7 387.9,65.3 391.2,65.3 
		391.2,64.7 389.8,64.7 	"/>
	<path fill="#00B2BB" d="M397.8,64.7v-4.5c0-0.6-0.2-1.1-0.5-1.4c-0.4-0.5-1.2-0.8-2.1-0.8c-1.6,0-2.5,0.8-2.5,1.5
		c0,0.3,0.2,0.6,0.6,0.6c0.3,0,0.5-0.3,0.5-0.5c0-0.2-0.1-0.4-0.2-0.5c0.3-0.3,0.8-0.5,1.6-0.5c0.8,0,1.4,0.3,1.7,0.6
		c0.2,0.3,0.3,0.7,0.3,1.1v1.3c-0.5-0.2-1.4-0.4-2.3-0.4c-1.5,0-2.7,0.9-2.7,2.1c0,1.1,0.9,2,2.4,2c1,0,2-0.6,2.6-1.2v1.1h1.8v-0.6
		H397.8z M397.2,63.6c-0.6,0.7-1.4,1.3-2.5,1.3c-1.2,0-1.8-0.7-1.8-1.5c0-0.8,0.6-1.6,2-1.6c0.8,0,1.6,0.1,2.2,0.4V63.6z"/>
</g>
</svg>
